<svg xmlns="http://www.w3.org/2000/svg" width="12" height="9" viewBox="0 0 12 9">
    <g fill="none" fill-rule="evenodd">
        <g fill="#FFF" fill-rule="nonzero">
            <path d="M10.143 3.988h-6.3c-.3 0-.544.246-.544.549 0 .303.244.548.544.548h6.3l-.703.71a.552.552 0 0 0 0 .776.54.54 0 0 0 .77 0l1.63-1.646a.54.54 0 0 0 .036-.04l.008-.01a.524.524 0 0 0 .024-.033l.006-.01a.55.55 0 0 0 .022-.036c0-.003.002-.005.003-.008a.55.55 0 0 0 .02-.041l.001-.005a.545.545 0 0 0 .016-.045l.002-.006a.539.539 0 0 0 .011-.046l.002-.015a.518.518 0 0 0 .006-.148c-.001-.014-.003-.027-.006-.04 0-.004 0-.009-.002-.013a.549.549 0 0 0-.011-.047l-.002-.005a.55.55 0 0 0-.016-.046c0-.001 0-.003-.002-.005a.536.536 0 0 0-.019-.041l-.003-.007a.553.553 0 0 0-.022-.037l-.006-.01a.56.56 0 0 0-.024-.032l-.008-.01a.564.564 0 0 0-.035-.04l-1.632-1.647a.54.54 0 0 0-.769 0 .552.552 0 0 0 0 .776l.703.71z"/>
            <path d="M4.479 9a4.434 4.434 0 0 0 3.694-1.988.552.552 0 0 0-.148-.761.54.54 0 0 0-.754.149 3.35 3.35 0 0 1-2.792 1.502c-1.853 0-3.36-1.521-3.36-3.391s1.507-3.392 3.36-3.392c1.118 0 2.16.56 2.787 1.496a.54.54 0 0 0 .755.148A.552.552 0 0 0 8.167 2 4.436 4.436 0 0 0 4.48.02C2.026.022.031 2.037.031 4.512S2.026 9 4.479 9z"/>
        </g>
    </g>
</svg>
