<?xml version="1.0" encoding="UTF-8" standalone="no"?>
<svg width="15px" height="15px" viewBox="0 0 15 15" version="1.1" xmlns="http://www.w3.org/2000/svg" xmlns:xlink="http://www.w3.org/1999/xlink">
    <!-- Generator: Sketch 43.2 (39069) - http://www.bohemiancoding.com/sketch -->
    <title>icon-zoom-in</title>
    <desc>Created with Sketch.</desc>
    <defs></defs>
    <g id="Desktop" stroke="none" stroke-width="1" fill="none" fill-rule="evenodd">
        <g id="D01---step-8---02" transform="translate(-367.000000, -721.000000)" fill="#FFFFFF">
            <g id="Signature" transform="translate(187.000000, 468.000000)">
                <g id="icon-group" transform="translate(167.000000, 239.000000)">
                    <g id="icon-zoom-in">
                        <g id="icon/zoom-in" transform="translate(12.000000, 13.000000)">
                            <path d="M10.0471531,6.83927837 L10.0471531,7.37499329 C10.0471531,7.51729257 9.92159489,7.64285076 9.77929561,7.64285076 L7.90429338,7.64285076 L7.90429338,9.51785299 C7.90429338,9.66015227 7.77873519,9.78571045 7.63643592,9.78571045 L7.10072099,9.78571045 C6.95842171,9.78571045 6.83286353,9.66015227 6.83286353,9.51785299 L6.83286353,7.64285076 L4.95786129,7.64285076 C4.81556202,7.64285076 4.69000383,7.51729257 4.69000383,7.37499329 L4.69000383,6.83927837 C4.69000383,6.69697909 4.81556202,6.57142091 4.95786129,6.57142091 L6.83286353,6.57142091 L6.83286353,4.69641867 C6.83286353,4.5541194 6.95842171,4.42856121 7.10072099,4.42856121 L7.63643592,4.42856121 C7.77873519,4.42856121 7.90429338,4.5541194 7.90429338,4.69641867 L7.90429338,6.57142091 L9.77929561,6.57142091 C9.92159489,6.57142091 10.0471531,6.69697909 10.0471531,6.83927837 Z M11.1185829,7.10713583 C11.1185829,5.03961105 9.43610324,3.35713136 7.36857845,3.35713136 C5.30105367,3.35713136 3.61857398,5.03961105 3.61857398,7.10713583 C3.61857398,9.17466062 5.30105367,10.8571403 7.36857845,10.8571403 C9.43610324,10.8571403 11.1185829,9.17466062 11.1185829,7.10713583 Z M15.4043023,14.0714298 C15.4043023,14.6657386 14.9271812,15.1428597 14.3328725,15.1428597 C14.0482739,15.1428597 13.7720459,15.0256721 13.5795234,14.824779 L10.7084262,11.9620523 C9.72907234,12.6400665 8.55719594,13 7.36857845,13 C4.11243618,13 1.47571429,10.3632781 1.47571429,7.10713583 C1.47571429,3.85099356 4.11243618,1.21427166 7.36857845,1.21427166 C10.6247207,1.21427166 13.2614426,3.85099356 13.2614426,7.10713583 C13.2614426,8.29575332 12.9015092,9.46762972 12.223495,10.4469836 L15.0945921,13.3180807 C15.2871147,13.5106033 15.4043023,13.7868313 15.4043023,14.0714298 Z" id="icon-zoom-in"></path>
                        </g>
                    </g>
                </g>
            </g>
        </g>
    </g>
</svg>