<?xml version="1.0" encoding="UTF-8"?>
<svg width="27px" height="27px" viewBox="0 0 27 27" version="1.1" xmlns="http://www.w3.org/2000/svg" xmlns:xlink="http://www.w3.org/1999/xlink">
    <!-- Generator: Sketch 42 (36781) - http://www.bohemiancoding.com/sketch -->
    <title></title>
    <desc>Created with Sketch.</desc>
    <defs></defs>
    <g id="Symbols" stroke="none" stroke-width="1" fill="none" fill-rule="evenodd">
        <g id="info_icon" fill="#1F6EDA">
            <path d="M13.3889949,0.5 C9.39952416,0.5 6.13346797,2.01246897 3.59072837,5.03745229 C1.53023249,7.49251122 0.5,10.2982508 0.5,13.4547551 C0.5,17.4442258 2.03438881,20.7322019 5.10321247,23.3187818 C7.51443106,25.3354374 10.2763309,26.34375 13.3889949,26.34375 C17.3784657,26.34375 20.6664417,24.831281 23.2530216,21.8062977 C25.3135175,19.3512388 26.34375,16.5674191 26.34375,13.4547551 C26.34375,9.46528434 24.831281,6.17730831 21.8062977,3.59072837 C19.3512388,1.53023249 16.5454992,0.5 13.3889949,0.5 Z M13.3889949,25.225827 C9.70640652,25.225827 6.68146858,23.7791175 4.31409033,20.8856552 C2.51663648,18.6936383 1.61792303,16.2166964 1.61792303,13.4547551 C1.61792303,9.7721667 3.04271264,6.72530892 5.89233461,4.31409033 C8.12819184,2.51663648 10.6270536,1.61792303 13.3889949,1.61792303 C17.0715833,1.61792303 20.1184411,3.04271264 22.5296597,5.89233461 C24.3271135,8.12819184 25.225827,10.6489735 25.225827,13.4547551 C25.225827,17.1373435 23.8010374,20.1622814 20.9514154,22.5296597 C18.7155582,24.3271135 16.1947765,25.225827 13.3889949,25.225827 Z M16.8085242,20.6883747 L13.9808365,20.6883747 L13.9808365,11.1531489 C13.8931558,10.8462665 13.6958773,10.6709078 13.3889949,10.6270674 L11.1531489,10.6270674 C10.8901068,10.6709078 10.7147481,10.8462665 10.6270674,11.1531489 C10.6709078,11.5038716 10.8462665,11.7011501 11.1531489,11.7449905 L12.8629135,11.7449905 L12.8629135,20.6883747 L10.0352258,20.6883747 C9.72834346,20.7760554 9.55298474,20.9733339 9.5091444,21.2802163 C9.55298474,21.630939 9.72834346,21.8282176 10.0352258,21.8720579 L16.8085242,21.8720579 C17.1154065,21.7843772 17.2907653,21.5870987 17.3346056,21.2802163 C17.2907653,20.9294936 17.1154065,20.732215 16.8085242,20.6883747 Z M12.8629135,7.27329835 C13.4766782,7.14177733 13.8493155,6.76914005 13.9808365,6.15537532 C13.8493155,5.54161059 13.4766782,5.1689733 12.8629135,5.03745229 C12.2491488,5.1689733 11.8765115,5.54161059 11.7449905,6.15537532 C11.8765115,6.76914005 12.2491488,7.14177733 12.8629135,7.27329835 Z" id=""></path>
        </g>
    </g>
</svg>