<?xml version="1.0" encoding="UTF-8"?>
<svg width="21px" height="22px" viewBox="0 0 21 22" version="1.1" xmlns="http://www.w3.org/2000/svg" xmlns:xlink="http://www.w3.org/1999/xlink">
    <!-- Generator: Sketch 43.1 (39012) - http://www.bohemiancoding.com/sketch -->
    <title>non-editable</title>
    <desc>Created with Sketch.</desc>
    <defs></defs>
    <g id="Desktop" stroke="none" stroke-width="1" fill="none" fill-rule="evenodd">
        <g id="D01---step-5---02" transform="translate(-692.000000, -174.000000)" fill="#A0A0A0">
            <g id="text-field---valid" transform="translate(465.000000, 148.000000)">
                <g id="Non-Editable_Icon-3" transform="translate(226.000000, 24.000000)">
                    <g id="Group" transform="translate(0.479167, 3.125000)">
                        <path d="M18.7745303,9.40188349 L17.2302854,10.8788643 L16.6174116,10.4403793 L18.8818699,8.51415054 L19.482236,8.94368692 L18.7437084,11.961654 L18.135525,11.5265247 L18.7745303,9.40188349 Z M14.5021458,8.56068187 L15.509236,8.81157374 L15.6543351,8.12344306 L14.4648011,7.82709976 L14.5777024,7.29166667 L16.4076145,7.74754448 L15.7987835,10.634917 L13.9652226,10.1781302 L14.0785421,9.64071399 L15.271725,9.93796632 L15.400098,9.32915907 L14.3930079,9.07826719 L14.5021458,8.56068187 Z M11.923674,8.7087034 L12.2777582,8.67268369 L12.1881108,7.63149782 L12.8422348,7.56495615 L13.0961776,10.5143075 L12.0283341,10.6229354 C11.7065507,10.6556693 11.4482814,10.6036127 11.2535183,10.4667641 C11.0587553,10.3299156 10.9491666,10.119698 10.9247489,9.83610507 C10.9070752,9.63083783 10.9306282,9.45679834 10.9954088,9.31398139 C11.0601893,9.17116444 11.1703511,9.04961582 11.3258974,8.94933188 L10.6569832,7.81790485 L10.654367,7.78752005 L11.3550811,7.71623894 L11.923674,8.7087034 Z M12.3250236,9.22163577 L11.9113042,9.26372196 C11.7870635,9.27636052 11.6966259,9.32131947 11.6399888,9.39860017 C11.5833516,9.47588087 11.5604983,9.57799047 11.5714282,9.70493206 C11.582358,9.83187364 11.622614,9.92824449 11.6921975,9.99404749 C11.7617809,10.0598505 11.8580704,10.0864955 11.9810687,10.0739833 L12.3947881,10.0318971 L12.3250236,9.22163577 Z M8.45558955,9.10658687 L9.04619298,8.79846282 L10.2254453,11.4690175 L9.63484191,11.7771415 L8.45558955,9.10658687 Z M6.27148661,12.414542 L7.09558054,11.6909084 L6.41337055,10.7729977 L6.92442526,10.3242426 L8.6370076,12.6285151 L7.21886716,13.8737785 L6.90011042,13.4448926 L7.80719614,12.6483843 L7.41316106,12.1182117 L6.58906713,12.8418452 L6.27148661,12.414542 Z M4.23060456,13.8544921 L4.5874911,13.2573562 L6.87284986,14.871104 L6.51596332,15.46824 L4.23060456,13.8544921 Z M4.02548502,17.9111737 L4.37323995,16.8536509 L3.76163927,16.6160348 L3.35088525,17.8651378 L2.875,17.6802492 L3.50688079,15.7586996 L6.07313609,16.7557286 L5.43999532,18.6811097 L4.96234753,18.4955364 L5.37436152,17.2426017 L4.83326236,17.0323765 L4.48550743,18.0898993 L4.02548502,17.9111737 Z M2.92542851,19.586166 L5.65001956,19.6518159 L5.63056447,20.6057645 C5.62522708,20.8674745 5.56585044,21.1014237 5.45243275,21.3076191 C5.33901506,21.5138145 5.18162201,21.67316 4.9802489,21.7856604 C4.77887578,21.8981608 4.55467332,21.9521122 4.3076348,21.9475165 L4.1822587,21.9444955 C3.93275278,21.9384836 3.71030485,21.8758049 3.51490824,21.7564575 C3.31951163,21.6371102 3.16811116,21.47202 3.06070228,21.2611821 C2.9532934,21.0503442 2.90157935,20.8167707 2.90555859,20.5604546 L2.92542851,19.586166 Z M5.1283411,20.3535326 L3.41611526,20.312276 L3.41105445,20.5604247 C3.40687857,20.7651823 3.47072436,20.9240928 3.60259375,21.0371611 C3.73446315,21.1502293 3.93263301,21.2099489 4.19710929,21.2163215 L4.31500024,21.2191621 C4.57822899,21.2255047 4.77770323,21.1753665 4.91342894,21.068746 C5.04915466,20.9621256 5.11915971,20.8037269 5.12344622,20.5935453 L5.1283411,20.3535326 Z" id="VERIFIED" transform="translate(11.178618, 14.619727) rotate(-150.000000) translate(-11.178618, -14.619727) "></path>
                        <path d="M7.99547982,10.2333822 L5.01649671,6.99535714 C4.71672332,6.71024659 4.71672332,6.40477558 5.01649671,6.07893495 C5.31627009,5.75309432 5.59730342,5.75309432 5.85960513,6.07893495 L8.44513765,8.88929634 L16.9886364,0.213832914 C17.2884098,-0.0712776381 17.5694431,-0.0712776381 17.8317448,0.213832914 C18.1315182,0.498943467 18.1315182,0.804414476 17.8317448,1.13025511 L8.83858825,10.2333822 C8.72617323,10.3555725 8.59502434,10.4166667 8.44513765,10.4166667 C8.25777928,10.4166667 8.10789484,10.3555725 7.99547982,10.2333822 Z" id="Path" stroke="#A0A0A0"></path>
                    </g>
                </g>
            </g>
        </g>
    </g>
</svg>