<?xml version="1.0" encoding="UTF-8"?>
<svg width="24px" height="21px" viewBox="0 0 24 21" version="1.1" xmlns="http://www.w3.org/2000/svg" xmlns:xlink="http://www.w3.org/1999/xlink">
    <!-- Generator: Sketch 43.1 (39012) - http://www.bohemiancoding.com/sketch -->
    <title>non-editable</title>
    <desc>Created with Sketch.</desc>
    <defs></defs>
    <g id="Desktop" stroke="none" stroke-width="1" fill="none" fill-rule="evenodd">
        <g id="D01---step-5---01" transform="translate(-691.000000, -172.000000)" fill="#A0A0A0">
            <g id="text-field---valid" transform="translate(465.000000, 148.000000)">
                <g id="Non-Editable_Icon-5" transform="translate(226.000000, 24.000000)">
                    <path d="M17.4996217,12.0002114 C17.4996217,12.2487422 17.2480575,12.5002908 16.9995422,12.5002908 L6.99966444,12.5002908 C6.75113361,12.5002908 6.499585,12.2487267 6.499585,12.0002114 L6.499585,2.49982172 C6.499585,1.91406236 6.38231024,1.49964726 6.99966444,1.49964726 L16.4997461,1.50025392 L18,0 L6.50025389,0 C5.53227941,0 5,0.532294976 5,1.50025392 L5,12.5003531 C5,13.4677206 5.53229496,14 6.50025389,14 L17.5003528,14 C18.4677206,14 19,13.467705 19,12.4997464 L19,7.49997514 L17.4997461,9.00022907 L17.4996217,12.0002114 Z" id="Fill-2" fill-rule="evenodd"></path>
                    <path d="M11.9610023,9.80980122 L8.60082391,6.44962285 C8.26269106,6.15375661 8.26269106,5.83676182 8.60082391,5.49862897 C8.93895676,5.16049613 9.25595155,5.16049613 9.5518178,5.49862897 L12.4681991,8.4150102 L20.5193408,1.22189968 C20.8574736,0.92603344 21.1744684,0.92603344 21.4703347,1.22189968 C21.8084675,1.51776592 21.8084675,1.83476071 21.4703347,2.17289356 L12.9119962,9.80980122 C12.7851964,9.93660104 12.6372655,10 12.4681991,10 C12.256866,10 12.0878021,9.93660104 11.9610023,9.80980122 Z" id="Path" stroke="#A0A0A0" stroke-width="0.5" fill-rule="evenodd"></path>
                    <text id="VERIFIED" font-family="Roboto-Black, Roboto" font-size="5" font-weight="700" letter-spacing="0.300000012">
                        <tspan x="0.377490193" y="21">VERIFIE</tspan>
                        <tspan x="20.3900879" y="21">D</tspan>
                    </text>
                </g>
            </g>
        </g>
    </g>
</svg>