<svg xmlns="http://www.w3.org/2000/svg" width="82" height="82" viewBox="0 0 82 82">
    <g fill="none" fill-rule="evenodd">
        <path fill="none" d="M-818-141H505v476H-818z"/>
        <path fill="#012667" fill-rule="nonzero" d="M41 0c22.6 0 41 18.4 41 41S63.6 82 41 82 0 63.6 0 41 18.4 0 41 0z"/>
        <g fill="#FFF" fill-rule="nonzero">
            <path d="M61.3 63.2H18.9c-.5 0-.9-.4-.9-.9V47.5c0-.5.4-.9.9-.9H30c.4 0 .8.3.9.6l.6 2c.5 1.6 2.3 2.9 3.9 2.9h9.3c1.6 0 3.4-1.3 3.9-2.9l.6-2c.1-.4.5-.6.9-.6h11.1c.5 0 .9.4.9.9v14.7c.1.6-.3 1-.8 1zm-41.5-1.8h40.5V48.5h-9.5l-.4 1.4c-.7 2.3-3.2 4.1-5.7 4.1h-9.3c-2.4 0-4.9-1.8-5.7-4.1l-.4-1.4h-9.5v12.9z"/>
            <path d="M61.3 63.9H18.9c-.9 0-1.6-.7-1.6-1.6V47.5c0-.9.7-1.6 1.6-1.6H30c.7 0 1.3.4 1.5 1.1l.6 2c.4 1.3 1.9 2.4 3.3 2.4h9.3c1.3 0 2.9-1.1 3.3-2.4l.6-2c.2-.7.8-1.1 1.5-1.1h11.1c.9 0 1.6.7 1.6 1.6v14.7c.1 1-.7 1.7-1.5 1.7zM18.9 47.3c-.1 0-.2.1-.2.2v14.7c0 .1.1.2.2.2h42.3c.1 0 .3-.1.3-.3V47.5c0-.1-.1-.2-.2-.2H50.2c-.1 0-.2.1-.2.2l-.6 2c-.6 1.8-2.6 3.3-4.6 3.3h-9.3c-1.9 0-4-1.5-4.6-3.3l-.6-2c0-.1-.1-.2-.2-.2H18.9zM61 62H19.2V47.8h10.7l.6 1.8c.7 2.1 2.9 3.7 5 3.7h9.3c2.2 0 4.4-1.6 5-3.7l.6-1.8H61V62zm-40.5-1.3h39.2V49.1h-8.3l-.3.9c-.8 2.6-3.6 4.6-6.3 4.6h-9.3c-2.7 0-5.5-2-6.3-4.6l-.3-.9h-8.4v11.6z"/>
            <path d="M61.3 48.5c-.4 0-.7-.2-.8-.6l-5.3-12.3H43.8c-.5 0-.9-.4-.9-.9s.4-.9.9-.9h12c.4 0 .7.2.8.6l5.5 12.9c.2.5 0 1-.5 1.2-.1-.1-.2 0-.3 0z"/>
            <path d="M61.3 49.1c-.6 0-1.2-.4-1.5-1l-5.1-11.9H43.8c-.9 0-1.6-.7-1.6-1.6 0-.9.7-1.6 1.6-1.6h12c.6 0 1.2.4 1.5 1l5.5 12.9c.3.8 0 1.8-.8 2.1-.3.1-.5.1-.7.1zM43.8 34.4c-.1 0-.2.1-.2.2s.1.2.2.2h11.8L61 47.6c.1.2.2.2.3.1.1-.1.2-.2.1-.3L56 34.6c0-.1-.1-.1-.2-.1h-12v-.1zM18.9 48.5c-.1 0-.2 0-.4-.1-.5-.2-.7-.7-.5-1.2l5.5-12.9c.1-.3.5-.6.8-.6h10.1c.5 0 .9.4.9.9s-.4.9-.9.9H25l-5.2 12.4c-.2.4-.5.6-.9.6z"/>
            <path d="M18.9 49.1c-.2 0-.4 0-.6-.1-.4-.2-.7-.5-.9-.9-.2-.4-.2-.8 0-1.2L23 34c.3-.6.8-1 1.5-1h10.1c.9 0 1.6.7 1.6 1.6 0 .9-.7 1.6-1.6 1.6h-9.1l-5.1 12c-.3.6-.8.9-1.5.9zm5.5-14.7c-.1 0-.2.1-.2.1l-5.5 13v.2l.1.1c.1 0 .3 0 .3-.1L24.6 35h10c.1 0 .2-.1.2-.2s-.1-.2-.2-.2H24.4v-.2z"/>
            <g>
                <path d="M45.7 31.9c-.2 0-.5-.1-.7-.3-.4-.4-.3-.9 0-1.3l5-4.9-5-4.9c-.4-.4-.4-.9 0-1.3s.9-.4 1.3 0l5.7 5.5c.2.2.3.4.3.7 0 .2-.1.5-.3.7l-5.6 5.5c-.2.2-.5.3-.7.3z"/>
                <path d="M45.7 32.5c-.4 0-.8-.2-1.1-.5-.6-.6-.6-1.6 0-2.3l4.4-4.3-4.5-4.4c-.6-.6-.6-1.6 0-2.3.3-.3.7-.5 1.1-.5.4 0 .8.2 1.1.4l5.7 5.5c.3.3.5.7.5 1.1 0 .4-.2.8-.5 1.1l-5.6 5.5c-.3.6-.7.7-1.1.7zm-.1-12.8c-.1 0-.1 0-.2.1s-.1.3 0 .4l5.6 5.2-5.4 5.3c-.1.1-.1.3 0 .3.1.1.2.1.3 0l5.6-5.5s.1-.1.1-.2 0-.1-.1-.2l-5.7-5.5c-.1.1-.1.1-.2.1z"/>
            </g>
            <g>
                <path d="M39.2 45.7c-.5 0-.9-.4-.9-.9v-12c0-4.6 3.7-8.3 8.3-8.3h2.8c.5 0 .9.4.9.9s-.4.9-.9.9h-2.8c-3.6 0-6.4 2.9-6.4 6.4v12c-.1.6-.5 1-1 1z"/>
                <path d="M39.2 46.4c-.9 0-1.6-.7-1.6-1.6v-12c0-4.9 4-9 9-9h2.8c.9 0 1.6.7 1.6 1.6 0 .9-.7 1.6-1.6 1.6h-2.8c-3.2 0-5.8 2.6-5.8 5.8v12c0 .9-.7 1.6-1.6 1.6zm7.3-21.2c-4.2 0-7.6 3.4-7.6 7.6v12c0 .3.5.3.5 0v-12c0-3.9 3.2-7.1 7.1-7.1h2.8c.1 0 .2-.1.2-.2s-.1-.2-.2-.2h-2.8v-.1z"/>
            </g>
        </g>
    </g>
</svg>
