<?xml version="1.0" encoding="UTF-8"?>
<svg width="102px" height="102px" viewBox="0 0 102 102" version="1.1" xmlns="http://www.w3.org/2000/svg" xmlns:xlink="http://www.w3.org/1999/xlink">
    <!-- Generator: Sketch 42 (36781) - http://www.bohemiancoding.com/sketch -->
    <title>Group</title>
    <desc>Created with Sketch.</desc>
    <defs></defs>
    <g id="Desktop" stroke="none" stroke-width="1" fill="none" fill-rule="evenodd">
        <g id="D01---step-10---01" transform="translate(-673.000000, -177.000000)">
            <g id="Group" transform="translate(674.000000, 178.000000)">
                <circle id="Oval" stroke="#06377B" cx="50" cy="50" r="50"></circle>
                <g id="Page-1" transform="translate(28.000000, 26.000000)">
                    <path d="M26.8099026,38.0135917 L3.09415664,38.0135917 L3.09415664,35.2500816 C3.09415664,30.268363 11.194805,25.8991349 20.4279277,25.8991349 C25.9072339,25.8991349 30.9707477,27.4435066 34.1967903,29.7357203 L35.9466238,27.973228 C32.3232902,25.233088 26.7212911,23.4647532 20.4279277,23.4647532 C9.52774045,23.4647532 0.659775,28.7512564 0.659775,35.2500816 L0.659775,40.4479733 L26.119512,40.4479733 L26.8099026,38.0135917 Z" id="Fill-1" fill="#06377B"></path>
                    <path d="M44.7818711,33.9704733 L41.2490965,30.5282576 L43.7857222,27.9916319 L47.2279378,31.4338476 L44.7818711,33.9704733 Z M36.0852862,42.6670582 L32.5525115,39.2248426 L39.8897378,31.8866426 L43.4234862,35.3288582 L36.0852862,42.6670582 Z M30.7403578,44.5697709 L31.7365068,41.0369963 L34.1825735,43.5726482 L30.7403578,44.5697709 Z M49.3117685,30.7999346 L44.5101942,25.9078013 C44.0272128,25.5455653 43.5442315,25.5455653 43.0602765,25.9078013 L30.5592398,38.5003706 C30.4384945,38.621116 30.3781218,38.7116749 30.3781218,38.7720476 L30.2875628,38.8626066 L30.2875628,38.9531656 L28.3848502,45.6564789 C28.3244775,46.0187149 28.3848502,46.3507645 28.5659681,46.6536016 C28.7470861,46.8347196 28.9885768,46.9252786 29.2904401,46.9252786 L29.5630909,46.9252786 L36.3569632,44.9320069 L36.4475222,44.9320069 C36.5682675,44.8112616 36.6588265,44.7508889 36.7191991,44.7508889 L49.3117685,32.1583196 C49.7343772,31.7357109 49.7343772,31.2829159 49.3117685,30.7999346 L49.3117685,30.7999346 Z" id="Fill-4" fill="#06377B"></path>
                    <path d="M20.4279277,3.05840303 C16.3946442,3.05840303 13.1140715,6.33897573 13.1140715,10.3712855 C13.1140715,14.404569 16.3946442,17.6851417 20.4279277,17.6851417 C24.4602374,17.6851417 27.7408101,14.404569 27.7408101,10.3712855 C27.7408101,6.33897573 24.4602374,3.05840303 20.4279277,3.05840303 M20.4279277,20.1195233 C15.052813,20.1195233 10.6796898,15.7464002 10.6796898,10.3712855 C10.6796898,4.99714457 15.052813,0.62402139 20.4279277,0.62402139 C25.8030424,0.62402139 30.1751918,4.99714457 30.1751918,10.3712855 C30.1751918,15.7464002 25.8030424,20.1195233 20.4279277,20.1195233" id="Fill-7" fill="#012667"></path>
                </g>
            </g>
        </g>
    </g>
</svg>