<svg xmlns="http://www.w3.org/2000/svg" width="34" height="34" viewBox="0 0 34 34">
    <g fill="#1F6EDA" fill-rule="nonzero">
        <path d="M26.072 22.393c-1.12-1.106-2.52-1.106-3.633 0-.849.842-1.698 1.684-2.533 2.54-.228.236-.421.286-.7.129-.549-.3-1.134-.543-1.662-.871-2.462-1.549-4.524-3.54-6.351-5.78-.906-1.113-1.713-2.305-2.277-3.647-.114-.27-.092-.45.129-.67.85-.821 1.677-1.663 2.512-2.505 1.163-1.17 1.163-2.54-.007-3.718-.664-.67-1.328-1.327-1.991-1.998-.685-.685-1.363-1.377-2.056-2.055-1.12-1.092-2.519-1.092-3.632.007-.856.842-1.677 1.706-2.547 2.533-.807.764-1.214 1.699-1.3 2.79-.135 1.777.3 3.454.914 5.088 1.256 3.383 3.169 6.387 5.488 9.141 3.133 3.725 6.872 6.673 11.246 8.799 1.97.956 4.01 1.691 6.23 1.813 1.527.085 2.855-.3 3.918-1.492.728-.813 1.548-1.555 2.32-2.333 1.141-1.156 1.148-2.555.013-3.697a1098.709 1098.709 0 0 0-4.081-4.074zM24.46 17l2.54-.443c-.4-2.384-1.5-4.543-3.173-6.259-1.769-1.807-4.005-2.946-6.47-3.298L17 9.609a8.69 8.69 0 0 1 5.01 2.553A9.016 9.016 0 0 1 24.46 17zM28.524 5.37C25.479 2.43 21.625.573 17.372 0L17 2.56c3.675.498 7.006 2.106 9.637 4.64 2.495 2.408 4.132 5.452 4.725 8.8L34 15.565c-.693-3.88-2.588-7.4-5.476-10.195z"/>
    </g>
</svg>
