<?xml version="1.0" encoding="UTF-8"?>
<svg width="102px" height="102px" viewBox="0 0 102 102" version="1.1" xmlns="http://www.w3.org/2000/svg" xmlns:xlink="http://www.w3.org/1999/xlink">
    <!-- Generator: Sketch 42 (36781) - http://www.bohemiancoding.com/sketch -->
    <title>Group 4</title>
    <desc>Created with Sketch.</desc>
    <defs></defs>
    <g id="Desktop" stroke="none" stroke-width="1" fill="none" fill-rule="evenodd">
        <g id="D01---step-10---01" transform="translate(-1056.000000, -177.000000)">
            <g id="Group-4" transform="translate(1057.000000, 178.000000)">
                <circle id="Oval-Copy-2" stroke="#012667" cx="50" cy="50" r="50"></circle>
                <path d="M69.2787729,56.4738948 L30.7212271,56.4738948 C29.6350937,56.4738948 28.714911,56.8510188 27.9606517,57.6052782 C27.2063923,58.3595376 26.8292683,59.2797202 26.8292683,60.3658537 L26.8292683,70.9556021 C26.8292683,71.6193504 27.1611374,71.9512195 27.8248857,71.9512195 L72.1751143,71.9512195 C72.8388626,71.9512195 73.1707317,71.6193504 73.1707317,70.9556021 L73.1707317,60.3658537 C73.1707317,59.2797202 72.7936077,58.3595376 72.0393483,57.6052782 C71.285089,56.8510188 70.3649063,56.4738948 69.2787729,56.4738948 Z M71.2700076,70.0504954 L28.7299924,70.0504954 L28.7299924,60.3658537 C28.7299924,59.8227869 28.9260969,59.3702381 29.3183117,59.0081936 C29.7105266,58.6461491 30.1781604,58.4651296 30.7212271,58.4651296 L69.2787729,58.4651296 C69.8218396,58.4651296 70.2894734,58.6461491 70.6816883,59.0081936 C71.0739031,59.3702381 71.2700076,59.8227869 71.2700076,60.3658537 L71.2700076,70.0504954 Z M33.2555259,54.5731707 L66.7444741,54.5731707 C67.9512891,54.5731707 69.0072363,54.1055369 69.9123476,53.1702553 C70.8174588,52.2349737 71.2700076,51.1036017 71.2700076,49.7761052 L71.2700076,30.4068216 C71.2700076,29.0793252 70.8174588,27.9479531 69.9123476,27.0126715 C69.0072363,26.0773899 67.9512891,25.6097561 66.7444741,25.6097561 L33.2555259,25.6097561 C32.0487109,25.6097561 30.9927637,26.0773899 30.0876524,27.0126715 C29.1825412,27.9479531 28.7299924,29.0793252 28.7299924,30.4068216 L28.7299924,49.7761052 C28.7299924,51.1036017 29.1825412,52.2349737 30.0876524,53.1702553 C30.9927637,54.1055369 32.0487109,54.5731707 33.2555259,54.5731707 Z M30.7212271,30.4068216 C30.7212271,29.6223919 30.9625865,28.9435687 31.4453125,28.3703316 C31.9280385,27.7970944 32.5314369,27.5104802 33.2555259,27.5104802 L66.7444741,27.5104802 C67.4685631,27.5104802 68.0719615,27.7970944 68.5546875,28.3703316 C69.0374135,28.9435687 69.2787729,29.6223919 69.2787729,30.4068216 L69.2787729,49.7761052 C69.2787729,50.5605349 69.0374135,51.2393582 68.5546875,51.8125953 C68.0719615,52.3858324 67.4685631,52.6724466 66.7444741,52.6724466 L33.2555259,52.6724466 C32.5314369,52.6724466 31.9280385,52.3858324 31.4453125,51.8125953 C30.9625865,51.2393582 30.7212271,50.5605349 30.7212271,49.7761052 L30.7212271,30.4068216 Z M67.3780488,29.5017149 L32.6219512,29.5017149 L32.6219512,50.6812119 L67.3780488,50.6812119 L67.3780488,29.5017149 Z M65.4773247,48.7804878 L34.5226753,48.7804878 L34.5226753,31.402439 L65.4773247,31.402439 L65.4773247,48.7804878 Z M43.2116997,60.3658537 L31.6263338,60.3658537 C31.0229264,60.3658537 30.7212271,60.6977228 30.7212271,61.361471 C30.7212271,61.9648785 31.0229264,62.2665777 31.6263338,62.2665777 L43.2116997,62.2665777 C43.8754479,62.2665777 44.2073171,61.9648785 44.2073171,61.361471 C44.2073171,60.6977228 43.8754479,60.3658537 43.2116997,60.3658537 Z M37.4190168,64.2578125 L31.6263338,64.2578125 C31.0229264,64.2578125 30.7212271,64.5595117 30.7212271,65.1629192 C30.7212271,65.8266674 31.0229264,66.1585366 31.6263338,66.1585366 L37.4190168,66.1585366 C38.082765,66.1585366 38.4146341,65.8266674 38.4146341,65.1629192 C38.4146341,64.5595117 38.082765,64.2578125 37.4190168,64.2578125 Z M50,66.1585366 L69.2787729,66.1585366 L69.2787729,60.3658537 L50,60.3658537 L50,66.1585366 Z M51.9007241,62.2665777 L67.3780488,62.2665777 L67.3780488,64.2578125 L51.9007241,64.2578125 L51.9007241,62.2665777 Z" id="î’" fill="#012667"></path>
            </g>
        </g>
    </g>
</svg>