<?xml version="1.0" encoding="UTF-8"?>
<svg width="19px" height="17px" viewBox="0 0 19 17" version="1.1" xmlns="http://www.w3.org/2000/svg" xmlns:xlink="http://www.w3.org/1999/xlink">
    <!-- Generator: Sketch 42 (36781) - http://www.bohemiancoding.com/sketch -->
    <title>Page 1</title>
    <desc>Created with Sketch.</desc>
    <defs></defs>
    <g id="Symbols" stroke="none" stroke-width="1" fill="none" fill-rule="evenodd">
        <g id="reupload" transform="translate(-11.000000, -12.000000)" fill="#FFFFFF">
            <g id="noun_899651" transform="translate(11.000000, 12.000000)">
                <g id="Group">
                    <path d="M13.1425171,0 L12.2887886,0.869250779 L15.0003365,3.58824492 L15.8540649,2.71899414 L13.1425171,0 Z M11.4612558,1.82668457 L1.57142857,11.8963269 L4.2530299,14.6266846 L14.1428571,4.55704229 L11.4612558,1.82668457 Z M0.352039781,13.0266846 L0,16.2266846 L3.14285714,15.8682443 L0.352039781,13.0266846 Z M6.70938095,14.6266846 C6.4751992,14.6266846 6.28571429,14.9844966 6.28571429,15.4266846 C6.28571429,15.8688726 6.47520556,16.2266846 6.70938095,16.2266846 L18.5720477,16.2266846 C18.8062294,16.2266846 18.9957143,15.8688726 18.9957143,15.4266846 C18.9957143,14.9844966 18.8062231,14.6266846 18.5720477,14.6266846 L6.70938095,14.6266846 Z" id="Page-1"></path>
                </g>
            </g>
        </g>
    </g>
</svg>