<?xml version="1.0" encoding="UTF-8"?>
<svg width="19px" height="19px" viewBox="0 0 19 19" version="1.1" xmlns="http://www.w3.org/2000/svg" xmlns:xlink="http://www.w3.org/1999/xlink">
    <!-- Generator: Sketch 41.2 (35397) - http://www.bohemiancoding.com/sketch -->
    <title>Page 1</title>
    <desc>Created with Sketch.</desc>
    <defs></defs>
    <g id="Form" stroke="none" stroke-width="1" fill="none" fill-rule="evenodd">
        <g id="D01---step-4---01" transform="translate(-295.000000, -333.000000)" fill="#43545F">
            <g id="Currency-options" transform="translate(187.000000, 289.000000)">
                <g id="Gender" transform="translate(18.000000, 33.000000)">
                    <path d="M104.958511,24.5277111 L102.165369,23.8308044 L101.958698,23.0018489 C102.69908,22.2452444 103.209756,21.2313556 103.380738,20.1859956 C103.816791,20.0312356 104.146427,19.6396311 104.2058,19.1581556 L104.393329,17.6598711 C104.43648,17.3052533 104.328764,16.9477156 104.094191,16.6790756 C103.979013,16.5473511 103.838204,16.4419067 103.681173,16.3672844 L103.74444,15.1000044 L103.990369,14.8527778 C104.44524,14.3687067 104.824191,13.5423467 104.044876,12.35488 C103.456982,11.4548711 102.465804,11 101.095676,11 C100.567156,11 99.35568,11 98.2136356,11.7527111 C94.9237689,11.8338222 94.4964756,13.4625333 94.4964756,14.8793822 C94.4964756,15.2012311 94.5675289,15.8767244 94.6207378,16.3419778 C94.44716,16.4140044 94.2901289,16.5256133 94.1619733,16.6703156 C93.9238311,16.9415511 93.8122222,17.30136 93.8566711,17.6585733 L94.0442,19.1568578 C94.1074667,19.6714267 94.4802533,20.0818489 94.9591333,20.2135733 C95.1291422,21.2161067 95.6132133,22.1933333 96.3075244,22.9333911 L96.0833333,23.8295067 L93.2901911,24.5264133 C91.3522844,25.0108089 90,26.7443156 90,28.7428933 C90,29.0232133 90.2267867,29.25 90.5067822,29.25 L107.743218,29.25 C108.023213,29.25 108.25,29.0206178 108.25,28.7406222 C108.25,26.7443156 106.897716,25.0108089 104.958511,24.5277111 Z" id="Page-1"></path>
                </g>
            </g>
        </g>
    </g>
</svg>