<?xml version="1.0" encoding="UTF-8" standalone="no"?>
<svg width="22px" height="4px" viewBox="0 0 22 4" version="1.1" xmlns="http://www.w3.org/2000/svg" xmlns:xlink="http://www.w3.org/1999/xlink">
    <!-- Generator: Sketch 44.1 (41455) - http://www.bohemiancoding.com/sketch -->
    <title>icon-verified</title>
    <desc>Created with Sketch.</desc>
    <defs></defs>
    <g id="Common-Component-Library" stroke="none" stroke-width="1" fill="none" fill-rule="evenodd">
        <g id="Common-Components-Library-2---Part-1" transform="translate(-481.000000, -800.000000)" fill="#A0A0A0">
            <g id="text-field---validated-copy" transform="translate(143.000000, 762.000000)">
                <g id="Non-Editable_Icon-3" transform="translate(338.000000, 30.000000)">
                    <path d="M2.07543945,11.0332031 L2.78344727,8.4453125 L3.74047852,8.4453125 L2.54418945,12 L1.60668945,12 L0.420166016,8.4453125 L1.36987305,8.4453125 L2.07543945,11.0332031 Z M6.20385742,10.4936523 L4.85620117,10.4936523 L4.85620117,11.3408203 L6.44799805,11.3408203 L6.44799805,12 L3.99926758,12 L3.99926758,8.4453125 L6.45288086,8.4453125 L6.45288086,9.10693359 L4.85620117,9.10693359 L4.85620117,9.85644531 L6.20385742,9.85644531 L6.20385742,10.4936523 Z M8.11791992,10.7451172 L7.65405273,10.7451172 L7.65405273,12 L6.79711914,12 L6.79711914,8.4453125 L8.19604492,8.4453125 C8.61759651,8.4453125 8.94718306,8.5388988 9.18481445,8.72607422 C9.42244585,8.91324963 9.54125977,9.17773267 9.54125977,9.51953125 C9.54125977,9.76692832 9.49121144,9.97200439 9.39111328,10.1347656 C9.29101512,10.2975269 9.13435979,10.4293615 8.92114258,10.5302734 L9.66333008,11.9633789 L9.66333008,12 L8.74536133,12 L8.11791992,10.7451172 Z M7.65405273,10.0834961 L8.19604492,10.0834961 C8.35880615,10.0834961 8.48128214,10.0407719 8.56347656,9.95532227 C8.64567098,9.86987262 8.68676758,9.75065181 8.68676758,9.59765625 C8.68676758,9.44466069 8.64526409,9.32462609 8.56225586,9.23754883 C8.47924763,9.15047157 8.35717854,9.10693359 8.19604492,9.10693359 L7.65405273,9.10693359 L7.65405273,10.0834961 Z M10.9719238,12 L10.1174316,12 L10.1174316,8.4453125 L10.9719238,8.4453125 L10.9719238,12 Z M13.8063965,10.5839844 L12.4245605,10.5839844 L12.4245605,12 L11.567627,12 L11.567627,8.4453125 L13.9455566,8.4453125 L13.9455566,9.10693359 L12.4245605,9.10693359 L12.4245605,9.92480469 L13.8063965,9.92480469 L13.8063965,10.5839844 Z M15.2150879,12 L14.3605957,12 L14.3605957,8.4453125 L15.2150879,8.4453125 L15.2150879,12 Z M18.0153809,10.4936523 L16.6677246,10.4936523 L16.6677246,11.3408203 L18.2595215,11.3408203 L18.2595215,12 L15.810791,12 L15.810791,8.4453125 L18.2644043,8.4453125 L18.2644043,9.10693359 L16.6677246,9.10693359 L16.6677246,9.85644531 L18.0153809,9.85644531 L18.0153809,10.4936523 Z M18.6086426,12 L18.6086426,8.4453125 L19.7536621,8.4453125 C20.0677913,8.4453125 20.3501778,8.51651947 20.6008301,8.65893555 C20.8514824,8.80135162 21.0471998,9.00235873 21.1879883,9.26196289 C21.3287767,9.52156705 21.3999837,9.81249839 21.4016113,10.1347656 L21.4016113,10.2983398 C21.4016113,10.6238623 21.3328457,10.9156074 21.1953125,11.173584 C21.0577793,11.4315605 20.8640963,11.6333814 20.6142578,11.7790527 C20.3644193,11.924724 20.0856949,11.9983724 19.7780762,12 L18.6086426,12 Z M19.4655762,9.10693359 L19.4655762,11.3408203 L19.7634277,11.3408203 C20.0091972,11.3408203 20.1979974,11.2533375 20.329834,11.0783691 C20.4616706,10.9034008 20.5275879,10.6433937 20.5275879,10.2983398 L20.5275879,10.1445312 C20.5275879,9.80110505 20.4616706,9.54231858 20.329834,9.36816406 C20.1979974,9.19400955 20.005942,9.10693359 19.7536621,9.10693359 L19.4655762,9.10693359 Z" id="VERIFIED"></path>
                </g>
            </g>
        </g>
    </g>
</svg>