<?xml version="1.0" encoding="UTF-8"?>
<svg width="15px" height="18px" viewBox="0 0 15 18" version="1.1" xmlns="http://www.w3.org/2000/svg" xmlns:xlink="http://www.w3.org/1999/xlink">
    <!-- Generator: Sketch 43.1 (39012) - http://www.bohemiancoding.com/sketch -->
    <title>non-editable</title>
    <desc>Created with Sketch.</desc>
    <defs></defs>
    <g id="Desktop" stroke="none" stroke-width="1" fill="none" fill-rule="evenodd">
        <g id="D01---step-5---03" transform="translate(-699.000000, -175.000000)" fill="#A0A0A0">
            <g id="text-field---valid" transform="translate(465.000000, 148.000000)">
                <g id="Non-Editable_Icon-2" transform="translate(233.000000, 27.000000)">
                    <path d="M15.9852556,10.3961229 C15.9622226,10.9597375 15.8562613,11.5348721 15.6443481,12.1029174 C15.2978977,13.033103 14.7303398,13.8150516 14.0347028,14.409636 C14.0337828,14.4105244 14.0328606,14.4114106 14.0328606,14.412299 L14.0300962,14.4140736 C13.7463172,14.656379 13.4413332,14.8658514 13.1197674,15.0406957 L9.06204202,17.8347972 C8.89895698,17.9732594 8.69441017,18.022075 8.50276325,17.9910097 C8.31111634,18.022075 8.10564726,17.9732594 7.94348448,17.8347972 L3.8857591,15.0397869 C3.56511317,14.8649357 3.2601528,14.654584 2.97543035,14.4131647 L2.97266592,14.4113901 C2.97174602,14.4105017 2.97082375,14.4096155 2.97082375,14.4087271 C2.27518673,13.8149379 1.70760523,13.0321033 1.36117837,12.1020086 C1.15202495,11.5410524 1.04607546,10.9721209 1.02119084,10.4138459 C1.00829094,10.3623674 1,10.3100004 1,10.2549705 L1,3.93285291 C1,3.55919267 1.31510291,3.25562924 1.70301985,3.25562924 L1.99510154,3.25562924 C2.04025002,3.25562924 2.08447623,3.26095523 2.12685791,3.26894422 L3.38915653,3.26894422 C3.48313782,3.27515637 3.57803902,3.28225693 3.6738554,3.28225693 C5.47606761,3.28225693 6.99636425,2.12753434 7.48556512,0.544959989 L7.58691744,0.544959989 C7.75000248,0.223650816 8.08906774,0 8.48526383,0 C8.88145992,0 9.22144744,0.223668994 9.38361021,0.544959989 L9.49325348,0.544959989 C9.98250152,2.1274889 11.5027746,3.28225693 13.3049632,3.28225693 C13.4007867,3.28225693 13.4956878,3.27604479 13.5896621,3.26894422 L14.8731421,3.26894422 C14.916446,3.26095523 14.9597523,3.25562924 15.0048985,3.25562924 L15.2969801,3.25562924 C15.6848735,3.25562924 16,3.55916995 16,3.93285291 L16,10.2567882 C16,10.3047176 15.9944711,10.3508701 15.9852579,10.3961365 L15.9852556,10.3961229 Z M7.53910605,10.0952274 L14,4.73684211 L7.37567046,13.2631579 L4,8.64885776 L7.53910605,10.0952274 Z" id="Page-1"></path>
                </g>
            </g>
        </g>
    </g>
</svg>