<svg xmlns="http://www.w3.org/2000/svg" width="286" height="29" viewBox="0 0 286 29">
    <g fill="none" fill-rule="evenodd">
        <path fill="" d="M-454-203H869v476H-454z"/>
        <g fill-rule="nonzero">
            <g fill="#FFF">
                <path d="M136.8 25.1h-2.9v-9.4h-10.4v9.4h-2.9V3.8h2.9v9.6h10.4V3.8h2.9zM158.2 16.4c0 2.6-.8 4.8-2.4 6.5-1.6 1.7-3.7 2.6-6.3 2.6-2.5 0-4.5-.9-6.1-2.6-1.6-1.7-2.3-3.9-2.3-6.5v-3.8c0-2.6.8-4.8 2.3-6.5 1.5-1.7 3.6-2.6 6.1-2.6 2.6 0 4.7.9 6.3 2.6 1.6 1.7 2.4 3.9 2.4 6.5v3.8zm-2.9-3.9c0-2-.5-3.6-1.6-4.8-1.1-1.2-2.5-1.9-4.2-1.9-1.7 0-3 .6-4 1.9-1 1.3-1.5 2.9-1.5 4.8v3.8c0 2 .5 3.6 1.5 4.8 1 1.2 2.3 1.9 4 1.9 1.8 0 3.2-.6 4.3-1.9 1-1.2 1.6-2.9 1.6-4.8v-3.8h-.1zM166.2 3.8l6.8 17.3h.1l6.8-17.3h3.7v21.3h-2.9v-8.4L181 8h-.1L174 25.1h-1.9L165.2 8h-.1l.3 8.6V25h-2.9V3.8zM201.5 15.2h-9.8v7.6H203v2.3h-14.2V3.8h14v2.3h-11.1V13h9.8v2.2zM216.8 22.8h10.1v2.3h-13V3.8h2.9zM245.9 16.4c0 2.6-.8 4.8-2.4 6.5-1.6 1.7-3.7 2.6-6.3 2.6-2.5 0-4.5-.9-6.1-2.6-1.6-1.7-2.3-3.9-2.3-6.5v-3.8c0-2.6.8-4.8 2.3-6.5 1.5-1.7 3.6-2.6 6.1-2.6 2.6 0 4.7.9 6.3 2.6 1.6 1.7 2.4 3.9 2.4 6.5v3.8zm-2.9-3.9c0-2-.5-3.6-1.6-4.8-1.1-1.2-2.5-1.9-4.2-1.9-1.7 0-3 .6-4 1.9-1 1.3-1.5 2.9-1.5 4.8v3.8c0 2 .5 3.6 1.5 4.8 1 1.2 2.3 1.9 4 1.9 1.8 0 3.2-.6 4.3-1.9 1-1.2 1.6-2.9 1.6-4.8v-3.8h-.1zM261.4 19.6h-8.9l-2 5.5h-2.9l8.2-21.3h2.5l8.1 21.3h-2.9l-2.1-5.5zm-8-2.4h7.2L257 7.5h-.1l-3.5 9.7zM285.4 25.1h-2.9L272.3 8.6h-.1v16.5h-2.9V3.8h2.9l10.3 16.5h.1V3.8h2.9v21.3z"/>
            </g>
            <path fill="#EE3124" d="M21.2 27.8c0 .7.9.8 1.4.8h.5c1.3-.1 1.3-.6 1.3-.8V.8c0-.7-.9-.8-1.4-.8h-.3c-.5 0-1.4.1-1.4.8v27h-.1zM4.3 27.8c0 .7.9.8 1.4.8h.5c1.3-.1 1.3-.6 1.3-.8V.8C7.4.1 6.5 0 6 0h-.3c-.6 0-1.5.1-1.4.8v27zM9.9 27.8c0 .7.9.8 1.4.8h.5c1.3-.1 1.3-.6 1.3-.8V.8c0-.7-.9-.8-1.4-.8h-.3c-.5 0-1.4.1-1.4.8v27h-.1zM15.5 27.8c0 .7.9.8 1.4.8h.5c1.3-.1 1.3-.6 1.3-.8V.8c0-.7-.9-.8-1.4-.8H17c-.5 0-1.4.1-1.4.8v27h-.1z"/>
            <path fill="#EE3124" d="M.8 12.7c-.7 0-.8.9-.8 1.4v.5c.1 1.3.6 1.3.8 1.3h27.1c.7 0 .8-.9.8-1.4v-.3c0-.5-.1-1.4-.8-1.4H1.2.8v-.1z"/>
            <path fill="#FCFCFC" d="M68.2 22.9c-4.4 0-6.1-2.4-6.1-8.7 0-6.2 1.6-8.5 6-8.5h.1c4.4 0 6 2.3 6 8.5s-1.7 8.7-6 8.7m0-20.7c-7.6 0-10.9 3.7-10.9 12.1 0 8.2 3.5 12.1 10.7 12.2h.4c7.2 0 10.8-4 10.8-12.2-.1-8.4-3.5-12.1-11-12.1M37.8 24.6c1.5 1.2 3.6 1.7 7 1.7h.2c3.4 0 5.5-.5 7-1.7 2.2-1.7 2.6-3.7 2.6-7.4V3.6c0-.2 0-.4-.2-.7-.4-.4-1.2-.6-2.4-.6s-1.9.2-2.3.5c-.2.2-.2.5-.2.7v14.3c0 2.4 0 2.9-1.1 3.7-1 .8-2.4.9-3.6.9-1.2 0-2.6-.1-3.6-.9-1-.9-1-1.3-1-3.7V3.5c0-.2 0-.4-.2-.7-.3-.4-1.1-.5-2.3-.5-1.2 0-1.9.2-2.3.5-.2.2-.2.5-.2.7v13.7c0 3.7.4 5.7 2.6 7.4M92 22.7h-5.3v-7.1h5.7c3.2 0 3.8 1.4 3.8 3.6 0 3-1.1 3.5-4.2 3.5zM86.7 5.8h5.4c2.8 0 3 1.4 3 3.3 0 2.2-1 3.2-3.4 3.2h-5.1V5.8h.1zM98 3.7c-1.2-.9-2.7-1.3-5.7-1.3h-9.7c-.4 0-.8.4-.8.8v22c0 .4.4.8.8.8h10.2c2.8 0 4.7-.1 6.3-1.3 1.8-1.4 2.2-3.7 2.2-5.4 0-2.2-.7-4-2.1-4.9-.6-.4-1.3-.7-1.9-.9l-.4-.2.4-.2c2-.9 2.7-2.3 2.7-4.9-.1-1-.4-3.3-2-4.5z"/>
            <path fill="#FFF" d="M111 0h1v28.7h-1z"/>
        </g>
    </g>
</svg>
