<svg xmlns="http://www.w3.org/2000/svg" width="76" height="71" viewBox="0 0 76 71">
    <g fill="#43545F" fill-rule="nonzero">
        <path d="M75.441 64.137L40.396 3.955a1.739 1.739 0 0 0-1.504-.861 1.74 1.74 0 0 0-1.504.86L2.233 64.326a1.71 1.71 0 0 0 0 1.723c.31.533.883.86 1.504.86h70.327c.96 0 1.737-.77 1.737-1.722 0-.395-.134-.758-.36-1.049zm-68.696-.673L38.892 8.26 71.04 63.464H6.745z"/>
        <path d="M37.155 25.69v24.7a1.73 1.73 0 0 0 1.737 1.723c.96 0 1.737-.77 1.737-1.722V25.689a1.73 1.73 0 0 0-1.737-1.722 1.73 1.73 0 0 0-1.737 1.722zM38.892 54.119c-1.19 0-2.156.957-2.156 2.138 0 1.18.965 2.139 2.156 2.139 1.19 0 2.157-.96 2.157-2.14 0-1.18-.966-2.137-2.157-2.137z"/>
    </g>
</svg>
