<?xml version="1.0" encoding="UTF-8" standalone="no"?>
<svg width="13px" height="14px" viewBox="0 0 13 14" version="1.1" xmlns="http://www.w3.org/2000/svg" xmlns:xlink="http://www.w3.org/1999/xlink">
    <!-- Generator: Sketch 43.2 (39069) - http://www.bohemiancoding.com/sketch -->
    <title>icon-rotate-left</title>
    <desc>Created with Sketch.</desc>
    <defs></defs>
    <g id="Desktop" stroke="none" stroke-width="1" fill="none" fill-rule="evenodd">
        <g id="D01---step-8---02" transform="translate(-452.000000, -721.000000)" fill="#FFFFFF">
            <g id="Signature" transform="translate(187.000000, 468.000000)">
                <g id="icon-group" transform="translate(167.000000, 239.000000)">
                    <g id="icon-rotate-left" transform="translate(84.000000, 0.000000)">
                        <g id="icon/rotate-left" transform="translate(12.000000, 13.000000)">
                            <path d="M14.8685868,2.28570151 C14.8685868,2.06806733 14.734658,1.87554477 14.5421355,1.79183932 C14.3412424,1.70813386 14.1068671,1.74998659 13.9561973,1.90902696 L12.8680263,2.98882735 C11.6877794,1.87554477 10.0890052,1.21427166 8.44000766,1.21427166 C4.89926684,1.21427166 2.01142857,4.10210993 2.01142857,7.64285076 C2.01142857,11.1835916 4.89926684,14.0714298 8.44000766,14.0714298 C10.3568626,14.0714298 12.1649005,13.2260047 13.3870002,11.7527887 C13.4707056,11.6439716 13.4707056,11.4849312 13.3702591,11.3928552 L12.2234943,10.2377199 C12.1649005,10.1874966 12.0895656,10.162385 12.0142307,10.162385 C11.9388958,10.1707556 11.8635609,10.2042377 11.8217081,10.2628316 C11.0013946,11.3258909 9.77092443,11.9285702 8.44000766,11.9285702 C6.07951378,11.9285702 4.15428827,10.0033446 4.15428827,7.64285076 C4.15428827,5.28235687 6.07951378,3.35713136 8.44000766,3.35713136 C9.53654915,3.35713136 10.5744968,3.77565865 11.3613281,4.50389612 L10.2061928,5.65903143 C10.0471524,5.80970125 10.0052997,6.04407653 10.0890052,6.23659908 C10.1727106,6.43749218 10.3652332,6.57142091 10.5828674,6.57142091 L14.3328718,6.57142091 C14.6258409,6.57142091 14.8685868,6.32867508 14.8685868,6.03570598 L14.8685868,2.28570151 Z" id="icon-rotate-right" transform="translate(8.440008, 7.642851) scale(-1, 1) translate(-8.440008, -7.642851) "></path>
                        </g>
                    </g>
                </g>
            </g>
        </g>
    </g>
</svg>