<?xml version="1.0" encoding="UTF-8"?>
<svg width="27px" height="29px" viewBox="0 0 27 29" version="1.1" xmlns="http://www.w3.org/2000/svg" xmlns:xlink="http://www.w3.org/1999/xlink">
    <!-- Generator: Sketch 43.1 (39012) - http://www.bohemiancoding.com/sketch -->
    <title>loading_icon</title>
    <desc>Created with Sketch.</desc>
    <defs></defs>
    <g id="Common-Component-Library" stroke="none" stroke-width="1" fill="none" fill-rule="evenodd">
        <g id="Common-Components-Library-2---Part-1" transform="translate(-679.000000, -1078.000000)" fill-rule="nonzero" fill="#BCD5DD">
            <g id="loading_icon" transform="translate(692.500000, 1092.500000) scale(-1, 1) translate(-692.500000, -1092.500000) translate(679.000000, 1078.000000)">
                <path d="M19,3.5 C19,5.432644 17.432895,7 15.49944,7 C13.567105,7 12,5.432644 12,3.5 C12,1.567356 13.567105,0 15.49944,0 C17.432867,0 19,1.567356 19,3.5 Z M26,8 C26,9.6569295 24.656958,11 23,11 C21.343042,11 20,9.6569575 20,8 C20,6.3430705 21.343042,5 23,5 C24.656958,5 26,6.3430425 26,8 Z M27,17.4994539 C27,18.8809891 25.880989,20 24.499454,20 C23.119011,20 22,18.8809891 22,17.4994539 C22,16.1190109 23.119011,15 24.499454,15 C25.880989,15 27,16.1190109 27,17.4994539 Z M22,25.0005464 C22,26.1052782 21.10443,27 20,27 C18.89557,27 18,26.1052782 18,25.0005464 C18,23.8958147 18.89557,23 20,23 C21.10443,23 22,23.8958147 22,25.0005464 Z M13,26.9994544 C13,28.1041856 12.10443,29 11,29 C9.89557,29 9,28.1041856 9,26.9994544 C9,25.8947223 9.89557,25 11,25 C12.10443,25 13,25.8947223 13,26.9994544 Z M4,21.5004095 C4,23.4998635 1,23.4998635 1,21.5004095 C1,19.4998635 4,19.4998635 4,21.5004095 Z M2,12 C2,13.3333333 0,13.3333333 0,12 C0,10.6666667 2,10.6666667 2,12 Z M8,5 C8,6.3333333 6,6.3333333 6,5 C6,3.6666667 8,3.6666667 8,5 Z" id="Combined-Shape"></path>
            </g>
        </g>
    </g>
</svg>
