<?xml version="1.0" encoding="UTF-8"?>
<svg width="17px" height="17px" viewBox="0 0 17 17" version="1.1" xmlns="http://www.w3.org/2000/svg" xmlns:xlink="http://www.w3.org/1999/xlink">
    <!-- Generator: Sketch 43.1 (39012) - http://www.bohemiancoding.com/sketch -->
    <title>non-editable</title>
    <desc>Created with Sketch.</desc>
    <defs></defs>
    <g id="Desktop" stroke="none" stroke-width="1" fill="none" fill-rule="evenodd">
        <g id="D01---step-5---01" transform="translate(-698.000000, -175.000000)" fill="#A0A0A0">
            <g id="text-field---valid" transform="translate(465.000000, 148.000000)">
                <g id="non-editable" transform="translate(233.000000, 27.000000)">
                    <path d="M2.49022659,2.48919455 C0.895445639,4.08294206 0,6.2453918 0,8.49895078 C0,10.7536519 0.895445639,12.916022 2.48919066,14.5097695 C4.08293568,16.104553 6.24538205,17 8.5,17 C10.7536617,17 12.9160018,16.104553 14.5108093,14.5097695 C16.1045544,12.916022 17,10.7535723 17,8.49895078 C17,6.24528555 16.1035184,4.08294206 14.5097734,2.48919455 C12.9149925,0.895447038 10.753582,0 8.50002656,0 C6.24532892,0 4.08402474,0.895447038 2.49027972,2.48919455 L2.49022659,2.48919455 Z M3.85215864,3.85204729 C4.9110774,2.7941562 6.31096188,2.14518695 7.80240343,2.02159008 C9.29384499,1.89799321 10.7814365,2.30794348 12,3.17734077 L3.17734713,12 C2.30795046,10.7814093 1.89797412,9.29389578 2.02159727,7.80240041 C2.14522042,6.31090504 2.79416284,4.91091407 3.85205316,3.85215277 L3.85215864,3.85204729 Z M13.1478414,13.1479527 C12.0889226,14.2058438 10.6890381,14.8548131 9.19759657,14.9784099 C7.70615501,15.1020068 6.2185635,14.6920565 5,13.8226592 L13.8226529,5 C14.6920495,6.21859075 15.1020259,7.70610422 14.9784027,9.19759959 C14.8547796,10.689095 14.2058372,12.0890859 13.1479468,13.1478472 L13.1478414,13.1479527 Z" id="Page-1"></path>
                </g>
            </g>
        </g>
    </g>
</svg>