<svg xmlns="http://www.w3.org/2000/svg" width="43" height="41" viewBox="0 0 43 41">
    <g fill="none" fill-rule="evenodd">
        <g fill="#ffffff">
            <text font-family="Roboto-Regular, Roboto" font-size="7">
                <tspan x="24.639" y="31.527">MINS</tspan>
            </text>
            <text font-family="Roboto-Regular, Roboto" font-size="11.9">
                <tspan x="24.639" y="24.627">2-3</tspan>
            </text>
            <path fill-rule="nonzero" d="M20.95 6.64H11.5c-.42 0-.7-.35-.7-.7V3.7c0-.42.35-.7.77-.7h9.45c.42 0 .7.35.7.7v2.17c0 .42-.35.77-.77.77zM11.29 30.09c-1.4-1.33-2.31-3.22-2.31-5.32 0-3.78 2.87-6.86 6.51-7.21.42-.07.77.28.77.7v6.23c0 .14-.07.28-.14.42l-3.71 4.97c-.28.42-.77.49-1.12.21z"/>
            <path fill-rule="nonzero" d="M1.98 21.9c1.12-5.67 5.6-10.22 11.27-11.34 3.85-.77 7.56 0 10.5 1.82.42.21.42.77.14 1.12l-1.61 1.61c-.21.21-.56.28-.84.14-2.31-1.26-5.04-1.75-7.98-.98-3.92.98-7.07 4.27-7.91 8.26-1.47 7 3.92 13.23 10.64 13.23 1.89 0 3.64-.49 5.18-1.33.28-.14.63-.14.84.14l1.61 1.61c.35.35.28.91-.14 1.12-2.17 1.33-4.76 2.1-7.56 2.1C7.3 39.33.16 31.21 1.98 21.9z"/>
        </g>
    </g>
</svg>
