<?xml version="1.0" encoding="UTF-8"?>
<svg width="102px" height="102px" viewBox="0 0 102 102" version="1.1" xmlns="http://www.w3.org/2000/svg" xmlns:xlink="http://www.w3.org/1999/xlink">
    <!-- Generator: Sketch 42 (36781) - http://www.bohemiancoding.com/sketch -->
    <title>Group 2</title>
    <desc>Created with Sketch.</desc>
    <defs></defs>
    <g id="Desktop" stroke="none" stroke-width="1" fill="none" fill-rule="evenodd">
        <g id="D01---step-10---01" transform="translate(-862.000000, -177.000000)">
            <g id="Group-2" transform="translate(863.000000, 178.000000)" stroke="#06377B">
                <circle id="Oval-Copy" cx="50" cy="50" r="50"></circle>
            </g>
            <g id="Page-1" transform="translate(885.000000, 201.000000)" stroke="#012667" stroke-width="0.25" fill="#06377B">
                <path d="M49.4739467,28.6453067 C46.4126133,31.6721067 42.6727467,33.2065067 38.3579467,33.2065067 C34.0599467,33.2065067 30.4610133,31.69824 27.3567467,28.59304 C24.25248,25.4897067 22.74328,21.8907733 22.74328,17.59184 C22.74328,13.2779733 24.2786133,9.53810667 27.30448,6.47677333 C30.3714133,3.37437333 33.9862133,1.86704 38.3579467,1.86704 C42.7306133,1.86704 46.3659467,3.37530667 49.4702133,6.47957333 C52.5306133,9.54090667 54.0827467,13.27984 54.0827467,17.59184 C54.0827467,21.9635733 52.5754133,25.5783733 49.4739467,28.6453067 M33.2059467,38.4695733 C33.2059467,42.8403733 31.6986133,46.4561067 28.5971467,49.52304 C25.4919467,52.59184 21.85568,54.08424 17.4811467,54.08424 C13.2419467,54.08424 9.54034667,52.5321067 6.47994667,49.4707733 C3.37568,46.3665067 1.86648,42.7685067 1.86648,38.4695733 C1.86648,34.1547733 3.40181333,30.4149067 6.42768,27.3535733 C9.49368,24.2521067 13.1094133,22.74384 17.4811467,22.74384 C19.0099467,22.74384 20.4715467,22.94824 21.84168,23.3299733 C22.6863467,25.7445067 24.0751467,27.9509067 26.0370133,29.9127733 C27.99888,31.8755733 30.20528,33.26344 32.6198133,34.1081067 C33.00248,35.47824 33.2059467,36.93984 33.2059467,38.4695733 M50.7899467,5.15984 C47.36648,1.73637333 43.1842133,0.000373333333 38.3579467,0.000373333333 C33.5307467,0.000373333333 29.36528,1.73730667 25.97728,5.16357333 C22.5930133,8.58797333 20.8766133,12.7693067 20.8766133,17.59184 C20.8766133,18.8621067 21.01008,20.0847733 21.2574133,21.2663733 C20.0459467,21.01344 18.78408,20.8771733 17.4811467,20.8771733 C12.6530133,20.8771733 8.48754667,22.61504 5.10048,26.0413067 C1.71621333,29.46384 -0.000186666666,33.6451733 -0.000186666666,38.4695733 C-0.000186666666,43.2211733 1.73674667,47.36704 5.16021333,50.79144 C8.58274667,54.2149067 12.7286133,55.9509067 17.4811467,55.9509067 C22.3046133,55.9509067 26.4850133,54.2345067 29.9094133,50.85024 C33.33568,47.46224 35.0726133,43.2977067 35.0726133,38.4695733 C35.0726133,37.1657067 34.93728,35.90384 34.6843467,34.6923733 C35.8650133,34.9397067 37.08768,35.0731733 38.3579467,35.0731733 C43.1814133,35.0731733 47.3627467,33.3567733 50.7862133,29.9725067 C54.21248,26.5845067 55.9494133,22.4199733 55.9494133,17.59184 C55.9494133,12.7665067 54.2134133,8.58330667 50.7899467,5.15984" id="Fill-1"></path>
                <path d="M38.36252,12.06576 C38.97572,12.06576 39.5039867,12.28696 39.94732,12.7302933 C40.3906533,13.1736267 40.6118533,13.7018933 40.6118533,14.3150933 C40.6118533,14.99736 40.9534533,15.3380267 41.6347867,15.3380267 C42.3851867,15.3380267 42.7594533,14.99736 42.7594533,14.3150933 C42.7594533,13.2930933 42.45332,12.3896267 41.8391867,11.6056267 C41.2259867,10.8216267 40.4419867,10.32696 39.4871867,10.12256 L39.4871867,8.79349333 C39.4871867,8.11122667 39.1119867,7.77056 38.36252,7.77056 C37.6811867,7.77056 37.3395867,8.11122667 37.3395867,8.79349333 L37.3395867,10.12256 C36.38572,10.32696 35.60172,10.8216267 34.9875867,11.6056267 C34.3743867,12.3896267 34.06732,13.2930933 34.06732,14.3150933 C34.06732,15.4742933 34.4938533,16.4804267 35.3459867,17.33256 C36.19812,18.1846933 37.20332,18.6102933 38.36252,18.6102933 C38.97572,18.6102933 39.5039867,18.8324267 39.94732,19.2748267 C40.3906533,19.71816 40.6118533,20.2464267 40.6118533,20.86056 C40.6118533,21.4056267 40.3906533,21.9002933 39.94732,22.3426933 C39.5039867,22.7860267 38.97572,23.00816 38.36252,23.00816 C37.8174533,23.00816 37.3227867,22.7860267 36.8794533,22.3426933 C36.4370533,21.9002933 36.21492,21.4056267 36.21492,20.86056 C36.21492,20.11016 35.83972,19.73496 35.0902533,19.73496 C34.4079867,19.73496 34.06732,20.11016 34.06732,20.86056 C34.06732,21.8144267 34.3743867,22.6842933 34.9875867,23.4682933 C35.60172,24.2522933 36.38572,24.78056 37.3395867,25.0530933 L37.3395867,26.2804267 C37.3395867,27.0298933 37.6811867,27.4050933 38.36252,27.4050933 C39.1119867,27.4050933 39.4871867,27.0298933 39.4871867,26.2804267 L39.4871867,25.0530933 C40.4419867,24.78056 41.2259867,24.2522933 41.8391867,23.4682933 C42.45332,22.6842933 42.7594533,21.8144267 42.7594533,20.86056 C42.7594533,19.6332267 42.3338533,18.5934933 41.48172,17.74136 C40.6295867,16.8892267 39.5898533,16.4626933 38.36252,16.4626933 C37.8174533,16.4626933 37.3227867,16.2414933 36.8794533,15.79816 C36.4370533,15.3548267 36.21492,14.8610933 36.21492,14.3150933 C36.21492,13.7018933 36.4370533,13.1736267 36.8794533,12.7302933 C37.3227867,12.28696 37.8174533,12.06576 38.36252,12.06576" id="Fill-4"></path>
                <path d="M17.4849733,32.9433067 C18.0981733,32.9433067 18.6273733,33.1645067 19.0697733,33.60784 C19.5131067,34.0511733 19.7343067,34.57944 19.7343067,35.19264 C19.7343067,35.8749067 20.0759067,36.2155733 20.75724,36.2155733 C21.50764,36.2155733 21.8819067,35.8749067 21.8819067,35.19264 C21.8819067,34.17064 21.5757733,33.2671733 20.96164,32.4831733 C20.34844,31.6991733 19.56444,31.2045067 18.60964,31.0001067 L18.60964,29.67104 C18.60964,28.9887733 18.2353733,28.6481067 17.4849733,28.6481067 C16.80364,28.6481067 16.46204,28.9887733 16.46204,29.67104 L16.46204,31.0001067 C15.5081733,31.2045067 14.7241733,31.6991733 14.11004,32.4831733 C13.49684,33.2671733 13.1897733,34.17064 13.1897733,35.19264 C13.1897733,36.35184 13.6163067,37.3579733 14.46844,38.2101067 C15.3205733,39.06224 16.3257733,39.48784 17.4849733,39.48784 C18.0981733,39.48784 18.6273733,39.7099733 19.0697733,40.1523733 C19.5131067,40.5957067 19.7343067,41.1239733 19.7343067,41.7381067 C19.7343067,42.2831733 19.5131067,42.7769067 19.0697733,43.22024 C18.6273733,43.6635733 18.0981733,43.8857067 17.4849733,43.8857067 C16.9399067,43.8857067 16.44524,43.6635733 16.0019067,43.22024 C15.5595067,42.7769067 15.3373733,42.2831733 15.3373733,41.7381067 C15.3373733,40.9877067 14.9621733,40.6125067 14.2127067,40.6125067 C13.53044,40.6125067 13.1897733,40.9877067 13.1897733,41.7381067 C13.1897733,42.6919733 13.49684,43.56184 14.11004,44.34584 C14.7241733,45.12984 15.5081733,45.6581067 16.46204,45.93064 L16.46204,47.1579733 C16.46204,47.90744 16.80364,48.28264 17.4849733,48.28264 C18.2353733,48.28264 18.60964,47.90744 18.60964,47.1579733 L18.60964,45.93064 C19.56444,45.6581067 20.34844,45.12984 20.96164,44.34584 C21.5757733,43.56184 21.8819067,42.6919733 21.8819067,41.7381067 C21.8819067,40.5107733 21.4563067,39.47104 20.6041733,38.6189067 C19.75204,37.7667733 18.7123067,37.34024 17.4849733,37.34024 C16.9399067,37.34024 16.44524,37.11904 16.0019067,36.6757067 C15.5595067,36.2323733 15.3373733,35.73864 15.3373733,35.19264 C15.3373733,34.57944 15.5595067,34.0511733 16.0019067,33.60784 C16.44524,33.1645067 16.9399067,32.9433067 17.4849733,32.9433067" id="Fill-6"></path>
            </g>
        </g>
    </g>
</svg>