<svg xmlns="http://www.w3.org/2000/svg" width="13" height="15" viewBox="0 0 13 15">
    <g fill="none" fill-rule="evenodd">
        <path fill="#1F6EDA" fill-rule="nonzero" stroke="#1F6EDA" stroke-width=".3" d="M11.884 11.291c0-.017-.017-.034-.017-.034-1.069-1.862-1.085-4.571-1.085-4.605v-.05c-.017-1.562-.946-2.925-2.306-3.607V2.23c0-.682-.568-1.23-1.274-1.23H5.997c-.706 0-1.274.548-1.274 1.23v.682C3.26 3.56 2.227 4.99 2.227 6.652c0 .034-.018 2.76-1.084 4.605l-.018.017c-.155.35-.172.631-.017.865.137.233.412.35.792.382h2.91c.085.831.809 1.479 1.686 1.479.878 0 1.6-.648 1.686-1.48h2.927c.362-.016.638-.148.775-.38.155-.235.155-.517 0-.849zM5.375 2.214c0-.332.276-.615.638-.615H7.2c.345 0 .638.266.638.615v.516a4.104 4.104 0 0 0-.654-.15 1.939 1.939 0 0 0-.309-.033h-.068c-.086-.017-.19-.017-.294-.017-.086 0-.172 0-.258.017h-.068c-.069 0-.155.017-.224.017h-.035c-.19.034-.38.066-.551.117l-.002-.467zm1.137 11.17c-.534 0-.965-.381-1.05-.865h2.1a1.061 1.061 0 0 1-1.05.865zm4.856-1.562c-.018.034-.104.066-.259.083H1.932c-.172-.017-.259-.05-.276-.083-.018-.034-.018-.117.051-.283 1.137-1.995 1.17-4.772 1.17-4.887 0-1.48.947-2.743 2.29-3.259h.017a3.86 3.86 0 0 1 1.428-.249c.482.017.965.117 1.413.316h.017c1.26.55 2.12 1.779 2.12 3.192v.05c0 .415.086 2.957 1.154 4.837.067.168.067.25.052.283zM5.719 4.559c.087.149.051.332-.103.415-.035.034-.93.599-.982 1.995 0 .132.035 1.213-.24 2.46a.31.31 0 0 1-.31.249h-.069a.307.307 0 0 1-.24-.366c.258-1.23.223-2.328.223-2.328v-.017c.068-1.745 1.24-2.476 1.291-2.51.139-.082.327-.032.43.102zm-1.635 5.967a.34.34 0 0 1-.344.333.34.34 0 0 1-.345-.333.34.34 0 0 1 .345-.332c.19 0 .344.149.344.332z"/>
    </g>
</svg>
