<?xml version="1.0" encoding="UTF-8"?>
<svg width="13px" height="17px" viewBox="0 0 13 17" version="1.1" xmlns="http://www.w3.org/2000/svg" xmlns:xlink="http://www.w3.org/1999/xlink">
    <!-- Generator: Sketch 42 (36781) - http://www.bohemiancoding.com/sketch -->
    <title>noun_778849</title>
    <desc>Created with Sketch.</desc>
    <defs></defs>
    <g id="Symbols" stroke="none" stroke-width="1" fill="none" fill-rule="evenodd">
        <g id="reupload-copy-2" transform="translate(-14.000000, -12.000000)" stroke-width="0.2" stroke="#FFFFFF" fill="#FFFFFF" fill-rule="nonzero">
            <g id="noun_778849" transform="translate(15.000000, 13.000000)">
                <g id="Group">
                    <path d="M10.3263158,4.06666667 C10.0578947,4.06666667 9.82105263,4.3 9.82105263,4.6 L9.82105263,13.1666667 C9.82105263,13.5833333 9.48947368,13.9333333 9.09473684,13.9333333 L2.92105263,13.9333333 C2.52631579,13.9333333 2.19473684,13.5833333 2.19473684,13.1666667 L2.19473684,4.58333333 C2.19473684,4.3 1.97368421,4.05 1.68947368,4.05 C1.42105263,4.05 1.18421053,4.28333333 1.18421053,4.58333333 L1.18421053,13.15 C1.18421053,14.15 1.95789474,14.9666667 2.90526316,14.9666667 L9.07894737,14.9666667 C10.0263158,14.9666667 10.8,14.15 10.8,13.15 L10.8,4.58333333 C10.8157895,4.3 10.5947368,4.06666667 10.3263158,4.06666667 Z" id="Shape"></path>
                    <path d="M6.47368421,12.2833333 L6.47368421,5.45 C6.47368421,5.16666667 6.26842105,4.91666667 6,4.91666667 C5.73157895,4.91666667 5.52631579,5.15 5.52631579,5.45 L5.52631579,12.2833333 C5.52631579,12.5666667 5.73157895,12.8166667 6,12.8166667 C6.26842105,12.8166667 6.47368421,12.5833333 6.47368421,12.2833333 Z" id="Shape"></path>
                    <path d="M4.42105263,12.2833333 L4.42105263,5.45 C4.42105263,5.16666667 4.21578947,4.91666667 3.94736842,4.91666667 C3.67894737,4.91666667 3.47368421,5.15 3.47368421,5.45 L3.47368421,12.2833333 C3.47368421,12.5666667 3.67894737,12.8166667 3.94736842,12.8166667 C4.21578947,12.8166667 4.42105263,12.5833333 4.42105263,12.2833333 Z" id="Shape"></path>
                    <path d="M8.52631579,12.2833333 L8.52631579,5.45 C8.52631579,5.16666667 8.32105263,4.91666667 8.05263158,4.91666667 C7.78421053,4.91666667 7.57894737,5.15 7.57894737,5.45 L7.57894737,12.2833333 C7.57894737,12.5666667 7.78421053,12.8166667 8.05263158,12.8166667 C8.32105263,12.8166667 8.52631579,12.5833333 8.52631579,12.2833333 Z" id="Shape"></path>
                    <path d="M11.4,2 L0.6,2 C0.331578947,2 0.0947368421,2.21666667 0.0947368421,2.5 C0.0947368421,2.78333333 0.315789474,3 0.6,3 L11.3842105,3 C11.6526316,3 11.8894737,2.78333333 11.8894737,2.5 C11.8894737,2.21666667 11.6684211,2 11.4,2 Z" id="Shape"></path>
                    <path d="M4.56315789,1 L7.43684211,1 C7.70526316,1 7.94210526,0.783333333 7.94210526,0.5 C7.94210526,0.216666667 7.72105263,0 7.43684211,0 L4.56315789,0 C4.29473684,0 4.05789474,0.216666667 4.05789474,0.5 C4.05789474,0.783333333 4.27894737,1 4.56315789,1 Z" id="Shape"></path>
                </g>
            </g>
        </g>
    </g>
</svg>