<?xml version="1.0" encoding="UTF-8"?>
<svg width="24px" height="20px" viewBox="0 0 24 20" version="1.1" xmlns="http://www.w3.org/2000/svg" xmlns:xlink="http://www.w3.org/1999/xlink">
    <!-- Generator: Sketch 42 (36781) - http://www.bohemiancoding.com/sketch -->
    <title>Page 1</title>
    <desc>Created with Sketch.</desc>
    <defs></defs>
    <g id="Symbols" stroke="none" stroke-width="1" fill="none" fill-rule="evenodd">
        <g id="edit-2" fill="#1F6EDA">
            <path d="M16.1986474,0 L15.1463949,1.07138433 L18.4884798,4.42264703 L19.5407323,3.3512627 L16.1986474,0 Z M14.1264295,2.25145755 L1.93684491,14.662671 L5.24201956,18.0279397 L17.4316042,5.61672628 L14.1264295,2.25145755 Z M0.433902291,16.0558795 L0,20 L3.87368982,19.5582088 L0.433902291,16.0558795 Z M8.26956477,18.0279397 C7.98092694,18.0279397 7.74737964,18.4689565 7.74737964,19.0139699 C7.74737964,19.5589832 7.98093477,20 8.26956477,20 L22.8907484,20 C23.1793862,20 23.4129335,19.5589832 23.4129335,19.0139699 C23.4129335,18.4689565 23.1793784,18.0279397 22.8907484,18.0279397 L8.26956477,18.0279397 Z" id="Page-1"></path>
        </g>
    </g>
</svg>