<?xml version="1.0" encoding="UTF-8"?>
<svg width="28px" height="28px" viewBox="0 0 28 28" version="1.1" xmlns="http://www.w3.org/2000/svg" xmlns:xlink="http://www.w3.org/1999/xlink">
    <!-- Generator: Sketch 43.1 (39012) - http://www.bohemiancoding.com/sketch -->
    <title></title>
    <desc>Created with Sketch.</desc>
    <defs></defs>
    <g id="Common-Component-Library" stroke="none" stroke-width="1" fill="none" fill-rule="evenodd">
        <g id="Common-Components-Library-2---Part-3" transform="translate(-838.000000, -230.000000)" stroke="#FFFFFF" stroke-width="0.5" fill="#FFFFFF">
            <g id="Group-6" transform="translate(814.000000, 155.000000)">
                <g id="Page-Error" transform="translate(0.000000, 56.000000)">
                    <g id="Group-2" transform="translate(25.000000, 20.000000)">
                        <path d="M13.1842639,0 C16.7140095,0 19.7142482,1.2355613 22.1850701,3.70672098 C24.6558919,6.17788065 25.9265813,9.19618041 25.9971762,12.7617108 C26.0677711,16.3625435 24.8147302,19.4514467 22.238016,22.0285132 C19.6613017,24.6055798 16.5904692,25.9293954 13.0254262,26 L12.7606966,26 C9.23095107,26 6.2395366,24.7644387 3.78636346,22.293279 C1.33319031,19.8221193 0.0713252134,16.8038196 0.000730302733,13.2382892 C-0.0345671526,9.63745654 1.20964948,6.54855328 3.73341754,3.97148676 C6.25718559,1.39442024 9.33684238,0.0706045621 12.9724803,0 L13.1842639,0 Z M21.568843,21.3571429 C23.925609,18.9642738 25.0682664,16.1071595 24.9968492,12.7857143 C24.925432,9.49998357 23.7559937,6.71429714 21.4884991,4.42857143 C19.2210044,2.14284571 16.4625582,1 13.2130777,1 L13.0523899,1 C9.66007512,1.07142893 6.7945048,2.30355946 4.45559301,4.69642857 C2.11668122,7.08929768 0.965096891,9.928555 1.00080547,13.2142857 C1.07222262,16.5357309 2.24166098,19.3303458 4.50915561,21.5982143 C6.77665025,23.8660828 9.53509644,25 12.7845769,25 L12.9988273,25 C16.3554336,24.9285711 19.2120769,23.7142975 21.568843,21.3571429 Z M12.703125,15 C12.2343727,15 12,14.8070195 12,14.4210526 L12,6.57894737 C12,6.19298053 12.2343727,6 12.703125,6 C13.2187526,6 13.4765625,6.19298053 13.4765625,6.57894737 L13.4765625,14.4210526 C13.4765625,14.8070195 13.2187526,15 12.703125,15 Z M12.9767442,18 C13.5969023,18 13.9379842,18.33333 14,19 C14,19.2539695 13.8992258,19.484126 13.6976744,19.6904762 C13.496123,19.8968264 13.2713191,20 13.0232558,20 L12.9767442,20 C12.7286809,20 12.503877,19.9047629 12.3023256,19.7142857 C12.1007742,19.5238086 12,19.2857157 12,19 C12,18.7460305 12.0930223,18.515874 12.2790698,18.3095238 C12.4651172,18.1031736 12.697673,18 12.9767442,18 Z" id=""></path>
                    </g>
                </g>
            </g>
        </g>
    </g>
</svg>