<?xml version="1.0" encoding="UTF-8"?>
<svg width="18px" height="18px" viewBox="0 0 18 18" version="1.1" xmlns="http://www.w3.org/2000/svg" xmlns:xlink="http://www.w3.org/1999/xlink">
    <!-- Generator: Sketch 41.2 (35397) - http://www.bohemiancoding.com/sketch -->
    <title>icon-female</title>
    <desc>Created with Sketch.</desc>
    <defs></defs>
    <g id="Form" stroke="none" stroke-width="1" fill="none" fill-rule="evenodd">
        <g id="D01---step-4---01" transform="translate(-550.000000, -333.000000)" fill="#43545F">
            <g id="Currency-options" transform="translate(187.000000, 289.000000)">
                <g id="Gender" transform="translate(18.000000, 33.000000)">
                    <path d="M359.75488,24.3424 L356.99872,23.65504 L356.88864,23.21248 C358.77632,22.87488 359.7536,22.30624 359.79872,22.28 C359.94016,22.19744 360.02752,22.04736 360.03872,21.88384 C360.0512,21.72 359.9776,21.55872 359.8512,21.45632 C359.83872,21.4464 358.5664,20.37376 358.5664,16.67744 C358.5664,13.40384 357.77632,11.7424 356.21888,11.7424 L356.05248,11.7424 C355.52256,11.23744 355.08512,11 354,11 C352.56864,11 349.43488,12.4288 349.43488,16.6736 C349.43488,20.3712 348.16256,21.44256 348.15744,21.44736 C348.02496,21.54752 347.95008,21.70624 347.95872,21.87264 C347.9664,22.04 348.0576,22.19008 348.2,22.27488 C348.24384,22.30112 349.21376,22.8736 351.11264,23.21248 L351.00256,23.65248 L348.2464,24.34112 C346.33376,24.81888 345,26.52864 345,28.49984 C345,28.77632 345.22368,29 345.49984,29 L362.50016,29 C362.77632,29 363,28.77376 363,28.4976 C363,26.52864 361.66624,24.81888 359.75488,24.3424 Z" id="icon-female"></path>
                </g>
            </g>
        </g>
    </g>
</svg>