<?xml version="1.0" encoding="UTF-8" standalone="no"?>
<svg width="15px" height="15px" viewBox="0 0 15 15" version="1.1" xmlns="http://www.w3.org/2000/svg" xmlns:xlink="http://www.w3.org/1999/xlink">
    <!-- Generator: Sketch 43.2 (39069) - http://www.bohemiancoding.com/sketch -->
    <title>icon-crop</title>
    <desc>Created with Sketch.</desc>
    <defs></defs>
    <g id="Desktop" stroke="none" stroke-width="1" fill="none" fill-rule="evenodd">
        <g id="D01---step-8---02" transform="translate(-535.000000, -721.000000)" fill="#FFFFFF">
            <g id="Signature" transform="translate(187.000000, 468.000000)">
                <g id="icon-group" transform="translate(167.000000, 239.000000)">
                    <g id="icon-crop" transform="translate(168.000000, 0.000000)">
                        <g id="icon/crop" transform="translate(12.000000, 13.000000)">
                            <path d="M6.13810824,10.8571403 L11.1185829,10.8571403 L11.1185829,5.87666562 L6.13810824,10.8571403 Z M5.76143368,10.4804657 L10.7419084,5.49999106 L5.76143368,5.49999106 L5.76143368,10.4804657 Z M15.4043023,11.1249978 L15.4043023,12.7321425 C15.4043023,12.8828124 15.2871147,13 15.1364449,13 L13.2614426,13 L13.2614426,14.8750022 C13.2614426,15.0256721 13.144255,15.1428597 12.9935852,15.1428597 L11.3864404,15.1428597 C11.2357706,15.1428597 11.1185829,15.0256721 11.1185829,14.8750022 L11.1185829,13 L3.88643145,13 C3.73576162,13 3.61857398,12.8828124 3.61857398,12.7321425 L3.61857398,5.49999106 L1.74357175,5.49999106 C1.59290193,5.49999106 1.47571429,5.38280342 1.47571429,5.2321336 L1.47571429,3.62498882 C1.47571429,3.474319 1.59290193,3.35713136 1.74357175,3.35713136 L3.61857398,3.35713136 L3.61857398,1.48212913 C3.61857398,1.3314593 3.73576162,1.21427166 3.88643145,1.21427166 L5.49357622,1.21427166 C5.64424604,1.21427166 5.76143368,1.3314593 5.76143368,1.48212913 L5.76143368,3.35713136 L12.8847681,3.35713136 L14.9439223,1.28960658 C15.0527394,1.18916003 15.2201503,1.18916003 15.3289674,1.28960658 C15.429414,1.39842367 15.429414,1.56583458 15.3289674,1.67465168 L13.2614426,3.73380592 L13.2614426,10.8571403 L15.1364449,10.8571403 C15.2871147,10.8571403 15.4043023,10.9743279 15.4043023,11.1249978 Z" id="icon-crop"></path>
                        </g>
                    </g>
                </g>
            </g>
        </g>
    </g>
</svg>