<?xml version="1.0" encoding="UTF-8"?>
<svg width="18px" height="18px" viewBox="0 0 18 18" version="1.1" xmlns="http://www.w3.org/2000/svg" xmlns:xlink="http://www.w3.org/1999/xlink">
    <!-- Generator: Sketch 43.1 (39012) - http://www.bohemiancoding.com/sketch -->
    <title>F</title>
    <desc>Created with Sketch.</desc>
    <defs></defs>
    <g id="Common-Component-Library" stroke="none" stroke-width="1" fill="none" fill-rule="evenodd" opacity="0.7">
        <g id="Common-Components-Library-2---Part-1" transform="translate(-1376.000000, -1125.000000)" fill="#43545F">
            <g id="dropdown-field---Focus" transform="translate(1022.000000, 1037.000000)">
                <g id="Search" transform="translate(0.000000, 61.000000)">
                    <g id="search_icon" transform="translate(354.000000, 27.000000)">
                        <path d="M17.8242188,16.9804688 C18.1054702,17.2617202 18.1054702,17.5429673 17.8242188,17.8242188 C17.7070307,17.9414068 17.5664071,18 17.4023438,18 C17.2382804,18 17.0976568,17.9414068 16.9804688,17.8242188 L10.4765625,11.3203125 C9.25780641,12.3046924 7.898445,12.796875 6.3984375,12.796875 C4.64061621,12.796875 3.13477189,12.1699281 1.88085938,10.9160156 C0.626946855,9.66210311 0,8.15625879 0,6.3984375 C0,4.64061621 0.626946855,3.13477189 1.88085938,1.88085938 C3.13477189,0.626946855 4.64061621,0 6.3984375,0 C8.15625879,0 9.66210311,0.626946855 10.9160156,1.88085938 C12.1699281,3.13477189 12.796875,4.64061621 12.796875,6.3984375 C12.796875,7.898445 12.3046924,9.25780641 11.3203125,10.4765625 L17.8242188,16.9804688 Z M6.3984375,11.6015625 C7.82813215,11.6015625 9.05272928,11.091802 10.0722656,10.0722656 C11.091802,9.05272928 11.6015625,7.82813215 11.6015625,6.3984375 C11.6015625,4.96874285 11.091802,3.74414572 10.0722656,2.72460938 C9.05272928,1.70507303 7.82813215,1.1953125 6.3984375,1.1953125 C4.94530523,1.1953125 3.71484879,1.69921371 2.70703125,2.70703125 C1.69921371,3.71484879 1.1953125,4.94530523 1.1953125,6.3984375 C1.1953125,7.82813215 1.70507303,9.05272928 2.72460938,10.0722656 C3.74414572,11.091802 4.96874285,11.6015625 6.3984375,11.6015625 Z" id="F"></path>
                    </g>
                </g>
            </g>
        </g>
    </g>
</svg>