<?xml version="1.0" encoding="UTF-8"?>
<svg width="106px" height="28px" viewBox="0 0 106 28" version="1.1" xmlns="http://www.w3.org/2000/svg" xmlns:xlink="http://www.w3.org/1999/xlink">
    <!-- Generator: Sketch 43.1 (39012) - http://www.bohemiancoding.com/sketch -->
    <title>UOB Logo</title>
    <desc>Created with Sketch.</desc>
    <defs>
        <polygon id="path-1" points="70.9902127 24.3203357 70.9902127 0.413921763 0.590308347 0.413921763 0.590308347 24.3203357 70.9902127 24.3203357"></polygon>
        <polygon id="path-3" points="2.51258083e-20 0.577840909 2.51258083e-20 27.7770036 28.1095171 27.7770036 28.1095171 0.577840909 0 0.577840909"></polygon>
    </defs>
    <g id="Desktop" stroke="none" stroke-width="1" fill="none" fill-rule="evenodd">
        <g id="D01---step-10---01" transform="translate(-186.000000, -32.000000)">
            <g id="UOB-Logo" transform="translate(186.000000, 31.000000)">
                <g>
                    <g id="Group-3" transform="translate(34.172176, 1.503759)">
                        <mask id="mask-2" fill="white">
                            <use xlink:href="#path-1"></use>
                        </mask>
                        <g id="Clip-2"></g>
                    </g>
                    <g id="Group-6" transform="translate(0.000000, 0.423894)">
                        <mask id="mask-4" fill="white">
                            <use xlink:href="#path-3"></use>
                        </mask>
                        <g id="Clip-5"></g>
                    </g>
                    <path d="M69.8753735,22.9382303 C73.4665105,22.9382303 75.70631,20.2268702 75.70631,15.1744514 C75.70631,10.162044 73.44057,7.41302607 69.8372734,7.41302607 C66.3061238,7.41302607 63.9731007,10.2310833 63.9731007,15.0763843 C63.9731007,20.2315774 66.1812852,22.9382303 69.8753735,22.9382303 L69.8753735,22.9382303 Z M69.9037459,3.22202899 C76.7123147,3.22202899 81.0184366,7.92925147 81.0184366,15.2026947 C81.0184366,22.4667236 76.7058296,27.1284429 69.8372734,27.1284429 C63.0003322,27.1284429 58.7598722,22.4549555 58.7598722,15.1085503 C58.7598722,7.88531739 63.0384323,3.22202899 69.9037459,3.22202899 L69.9037459,3.22202899 Z M44.6385162,27.0798016 C41.559704,27.0837243 39.3742174,26.528272 37.6151277,25.216526 C35.3980262,23.5776281 34.7624841,21.8383094 34.7624841,18.0348736 L34.7624841,4.39412739 C34.7624841,3.92340514 35.1702362,3.52329123 35.6614843,3.52329123 L39.2777512,3.52329123 C39.7698099,3.52329123 40.1783727,3.92340514 40.1783727,4.39412739 L40.1783727,17.832463 C40.1783727,20.2825723 40.457233,20.9580588 41.4745867,21.7708392 C42.3152208,22.4400493 43.2677233,22.8440859 44.6417588,22.8440859 C46.0109305,22.8440859 46.9666755,22.4455411 47.815416,21.7708392 C48.8327697,20.9580588 49.1100087,20.2825723 49.1100087,17.832463 L49.1100087,4.39412739 C49.1100087,3.92340514 49.5258673,3.52329123 50.0130622,3.52329123 L53.6301397,3.52329123 C54.125441,3.52329123 54.5307612,3.92340514 54.5307612,4.39412739 L54.5307612,18.0348736 C54.5307612,21.8383094 53.8838701,23.5776281 51.6813601,25.216526 C49.9117321,26.5306256 47.7270562,27.0719562 44.6385162,27.0798016 L44.6385162,27.0798016 Z M102.746842,15.4772827 C104.271657,16.5434686 105.162551,18.3981143 105.162551,20.4088828 C105.162551,22.5153649 104.328402,24.1958433 102.686855,25.4252129 C101.054225,26.6067257 99.3154013,27.0617572 96.4676215,27.0617572 L86.1578968,27.0617572 C85.6634061,27.0617572 85.2499795,26.6702732 85.2499795,26.1877829 L85.2499795,4.6271349 C85.2499795,4.15719719 85.6634061,3.75472967 86.1578968,3.75472967 L95.9836692,3.75472967 C98.9189981,3.75472967 100.167384,4.09443422 101.495213,5.05078492 C102.914645,6.05420785 103.803107,7.86727304 103.803107,9.67092379 C103.803107,11.9758937 102.943017,13.6571567 101.002344,14.551529 C101.675176,14.7774756 102.131566,15.039511 102.746842,15.4772827 L102.746842,15.4772827 Z M95.4624274,13.2389984 C97.6114352,13.2389984 98.696072,12.2277301 98.696072,10.3464102 C98.696072,8.5074553 97.5571222,7.38792088 95.8442391,7.38792088 L90.5945318,7.38792088 L90.5945318,13.2389984 L95.4624274,13.2389984 Z M95.7380452,23.4042454 C98.5874462,23.4042454 99.7426088,22.3576729 99.7426088,20.1680299 C99.7426088,18.0764541 98.470714,16.9059247 96.1295845,16.9059247 L90.5945318,16.9059247 L90.5945318,23.4042454 L95.7380452,23.4042454 Z" id="Fill-1" fill="#06377B"></path>
                    <path d="M12.8292,2.35998804 L12.8292,13.2941986 L15.2754968,13.2941986 L15.2754968,2.35998804 C15.2754968,1.61088517 15.8854488,1.00173445 16.6316667,1.00173445 C17.3769575,1.00173445 17.9869095,1.61088517 17.9869095,2.35998804 L17.9869095,13.2941986 L20.4332064,13.2941986 L20.4332064,2.35998804 C20.4332064,1.61088517 21.0394504,1.00173445 21.7875223,1.00173445 C22.5411559,1.00173445 23.1455461,1.61088517 23.1455461,2.35998804 L23.1455461,13.2941986 L26.6958745,13.2941986 C27.4782446,13.2941986 28.1095171,13.8773325 28.1095171,14.6013158 C28.1095171,15.325299 27.4782446,15.9147129 26.6958745,15.9147129 L23.1455461,15.9147129 L23.1455461,26.8435407 C23.1455461,27.5926435 22.5411559,28.2008971 21.7875223,28.2008971 C21.0394504,28.2008971 20.4332064,27.5926435 20.4332064,26.8435407 L20.4332064,15.9147129 L17.9869095,15.9147129 L17.9869095,26.8435407 C17.9869095,27.5926435 17.3769575,28.2008971 16.6316667,28.2008971 C15.8854488,28.2008971 15.2754968,27.5926435 15.2754968,26.8435407 L15.2754968,15.9147129 L12.8292,15.9147129 L12.8292,26.8435407 C12.8292,27.5926435 12.2211019,28.2008971 11.4711762,28.2008971 C10.7240313,28.2008971 10.1131524,27.5926435 10.1131524,26.8435407 L10.1131524,15.9147129 L7.6640746,15.9147129 L7.6640746,26.8435407 C7.6640746,27.5926435 7.05504958,28.2008971 6.30605078,28.2008971 C5.55612501,28.2008971 4.95173488,27.5926435 4.95173488,26.8435407 L4.95173488,15.9147129 L1.40140642,15.9147129 C0.624598256,15.9147129 -0.000185395739,15.325299 -0.000185395739,14.6013158 C-0.000185395739,13.8773325 0.624598256,13.2941986 1.40140642,13.2941986 L4.95173488,13.2941986 L4.95173488,2.35998804 C4.95173488,1.61088517 5.55612501,1.00173445 6.30605078,1.00173445 C7.05504958,1.00173445 7.6640746,1.61088517 7.6640746,2.35998804 L7.6640746,13.2941986 L10.1131524,13.2941986 L10.1131524,2.35998804 C10.1131524,1.61088517 10.7240313,1.00173445 11.4711762,1.00173445 C12.2211019,1.00173445 12.8292,1.61088517 12.8292,2.35998804" id="Fill-4" fill="#EC1C2B"></path>
                </g>
            </g>
        </g>
    </g>
</svg>